<svg width="179" height="55" viewBox="0 0 179 55" fill="none" xmlns="http://www.w3.org/2000/svg">
<path d="M21.5537 3.7575C24.1362 3.7575 26.2313 14.65 26.2313 28.105H30C30 13.62 26.1975 1.895 21.5425 1.895C18.8837 1.895 16.5338 5.4075 14.9825 10.9288C13.4312 5.40875 11.0813 1.895 8.44375 1.895C3.78875 1.895 0 13.61 0 28.095H3.7675C3.7675 14.6412 5.84 3.7575 8.4225 3.7575C11.005 3.7575 13.0988 13.82 13.0988 26.2325H16.845C16.845 13.82 18.95 3.7575 21.5325 3.7575H21.5537Z" fill="#FEC208"/>
<path d="M46.882 24V7.056H49.57L56.242 17.448H54.874L61.522 7.056H64.234V24H60.466V13.416L61.138 13.584L56.794 20.352H54.298L49.978 13.584L50.626 13.416V24H46.882ZM72.7876 24.264C71.5876 24.264 70.4996 24 69.5236 23.472C68.5476 22.944 67.7796 22.216 67.2196 21.288C66.6596 20.36 66.3796 19.32 66.3796 18.168C66.3796 17 66.6596 15.96 67.2196 15.048C67.7956 14.12 68.5716 13.392 69.5476 12.864C70.5236 12.336 71.6196 12.072 72.8356 12.072C73.7476 12.072 74.5796 12.232 75.3316 12.552C76.0996 12.856 76.7796 13.32 77.3716 13.944L75.0196 16.296C74.7476 15.992 74.4276 15.768 74.0596 15.624C73.7076 15.48 73.2996 15.408 72.8356 15.408C72.3076 15.408 71.8356 15.528 71.4196 15.768C71.0196 15.992 70.6996 16.312 70.4596 16.728C70.2356 17.128 70.1236 17.6 70.1236 18.144C70.1236 18.688 70.2356 19.168 70.4596 19.584C70.6996 20 71.0276 20.328 71.4436 20.568C71.8596 20.808 72.3236 20.928 72.8356 20.928C73.3156 20.928 73.7396 20.848 74.1076 20.688C74.4916 20.512 74.8196 20.272 75.0916 19.968L77.4196 22.32C76.8116 22.96 76.1236 23.448 75.3556 23.784C74.5876 24.104 73.7316 24.264 72.7876 24.264ZM86.5041 24V20.688H90.7041C91.7281 20.688 92.6241 20.488 93.3921 20.088C94.1601 19.672 94.7521 19.072 95.1681 18.288C95.5841 17.504 95.7921 16.576 95.7921 15.504C95.7921 14.432 95.5761 13.512 95.1441 12.744C94.7281 11.976 94.1361 11.384 93.3681 10.968C92.6161 10.552 91.7281 10.344 90.7041 10.344H86.3841V7.056H90.7521C92.0321 7.056 93.2081 7.264 94.2801 7.68C95.3681 8.08 96.3121 8.664 97.1121 9.432C97.9281 10.184 98.5521 11.08 98.9841 12.12C99.4321 13.144 99.6561 14.28 99.6561 15.528C99.6561 16.76 99.4321 17.896 98.9841 18.936C98.5521 19.976 97.9361 20.872 97.1361 21.624C96.3361 22.376 95.3921 22.96 94.3041 23.376C93.2321 23.792 92.0641 24 90.8001 24H86.5041ZM83.9601 24V7.056H87.7281V24H83.9601ZM107.334 24.264C106.134 24.264 105.046 24 104.07 23.472C103.11 22.928 102.35 22.192 101.79 21.264C101.23 20.336 100.95 19.296 100.95 18.144C100.95 16.992 101.23 15.96 101.79 15.048C102.35 14.136 103.11 13.416 104.07 12.888C105.03 12.344 106.118 12.072 107.334 12.072C108.55 12.072 109.638 12.336 110.598 12.864C111.558 13.392 112.318 14.12 112.878 15.048C113.438 15.96 113.718 16.992 113.718 18.144C113.718 19.296 113.438 20.336 112.878 21.264C112.318 22.192 111.558 22.928 110.598 23.472C109.638 24 108.55 24.264 107.334 24.264ZM107.334 20.928C107.862 20.928 108.326 20.816 108.726 20.592C109.126 20.352 109.43 20.024 109.638 19.608C109.862 19.176 109.974 18.688 109.974 18.144C109.974 17.6 109.862 17.128 109.638 16.728C109.414 16.312 109.102 15.992 108.702 15.768C108.318 15.528 107.862 15.408 107.334 15.408C106.822 15.408 106.366 15.528 105.966 15.768C105.566 15.992 105.254 16.312 105.03 16.728C104.806 17.144 104.694 17.624 104.694 18.168C104.694 18.696 104.806 19.176 105.03 19.608C105.254 20.024 105.566 20.352 105.966 20.592C106.366 20.816 106.822 20.928 107.334 20.928ZM123.25 24V17.352C123.25 16.744 123.058 16.256 122.674 15.888C122.306 15.504 121.834 15.312 121.258 15.312C120.858 15.312 120.506 15.4 120.202 15.576C119.898 15.736 119.658 15.976 119.482 16.296C119.306 16.6 119.218 16.952 119.218 17.352L117.802 16.656C117.802 15.744 118.002 14.944 118.402 14.256C118.802 13.568 119.354 13.04 120.058 12.672C120.778 12.288 121.586 12.096 122.482 12.096C123.346 12.096 124.106 12.304 124.762 12.72C125.434 13.12 125.962 13.656 126.346 14.328C126.73 15 126.922 15.736 126.922 16.536V24H123.25ZM115.546 24V12.336H119.218V24H115.546ZM134.152 24.24C133.08 24.24 132.12 23.976 131.272 23.448C130.44 22.92 129.776 22.2 129.28 21.288C128.8 20.376 128.56 19.336 128.56 18.168C128.56 17 128.8 15.96 129.28 15.048C129.776 14.136 130.44 13.416 131.272 12.888C132.12 12.36 133.08 12.096 134.152 12.096C134.936 12.096 135.64 12.248 136.264 12.552C136.904 12.856 137.424 13.28 137.824 13.824C138.224 14.352 138.448 14.96 138.496 15.648V20.688C138.448 21.376 138.224 21.992 137.824 22.536C137.44 23.064 136.928 23.48 136.288 23.784C135.648 24.088 134.936 24.24 134.152 24.24ZM134.896 20.928C135.68 20.928 136.312 20.672 136.792 20.16C137.272 19.632 137.512 18.968 137.512 18.168C137.512 17.624 137.4 17.144 137.176 16.728C136.968 16.312 136.664 15.992 136.264 15.768C135.88 15.528 135.432 15.408 134.92 15.408C134.408 15.408 133.952 15.528 133.552 15.768C133.168 15.992 132.856 16.312 132.616 16.728C132.392 17.144 132.28 17.624 132.28 18.168C132.28 18.696 132.392 19.168 132.616 19.584C132.84 20 133.152 20.328 133.552 20.568C133.952 20.808 134.4 20.928 134.896 20.928ZM137.368 24V20.856L137.92 18.024L137.368 15.192V12.336H140.968V24H137.368ZM143.554 24V6.576H147.226V24H143.554ZM154.78 24.24C153.676 24.24 152.692 23.976 151.828 23.448C150.98 22.92 150.308 22.2 149.812 21.288C149.332 20.376 149.092 19.336 149.092 18.168C149.092 17 149.332 15.96 149.812 15.048C150.308 14.136 150.98 13.416 151.828 12.888C152.692 12.36 153.676 12.096 154.78 12.096C155.58 12.096 156.3 12.248 156.94 12.552C157.596 12.856 158.132 13.28 158.548 13.824C158.98 14.352 159.22 14.96 159.268 15.648V20.568C159.22 21.256 158.988 21.88 158.572 22.44C158.156 22.984 157.62 23.424 156.964 23.76C156.308 24.08 155.58 24.24 154.78 24.24ZM155.428 20.928C155.956 20.928 156.412 20.816 156.796 20.592C157.18 20.352 157.484 20.024 157.708 19.608C157.932 19.192 158.044 18.712 158.044 18.168C158.044 17.624 157.932 17.152 157.708 16.752C157.5 16.336 157.196 16.008 156.796 15.768C156.412 15.528 155.964 15.408 155.452 15.408C154.94 15.408 154.484 15.528 154.084 15.768C153.7 16.008 153.388 16.336 153.148 16.752C152.924 17.168 152.812 17.64 152.812 18.168C152.812 18.696 152.924 19.168 153.148 19.584C153.372 20 153.684 20.328 154.084 20.568C154.484 20.808 154.932 20.928 155.428 20.928ZM161.5 24H157.9V20.856L158.452 18.024L157.828 15.192V6.576H161.5V24ZM163.821 13.872L165.573 10.584L166.653 10.296C166.541 10.52 166.405 10.712 166.245 10.872C166.085 11.032 165.901 11.112 165.693 11.112C165.229 11.112 164.805 10.92 164.421 10.536C164.037 10.152 163.845 9.664 163.845 9.072C163.845 8.448 164.053 7.92 164.469 7.488C164.901 7.04 165.429 6.816 166.053 6.816C166.645 6.816 167.157 7.04 167.589 7.488C168.037 7.92 168.261 8.448 168.261 9.072C168.261 9.328 168.213 9.632 168.117 9.984C168.021 10.32 167.829 10.752 167.541 11.28L165.597 14.832L163.821 13.872ZM173.302 24.288C172.614 24.288 171.934 24.2 171.262 24.024C170.606 23.848 169.99 23.6 169.414 23.28C168.854 22.944 168.374 22.56 167.974 22.128L170.062 20.016C170.446 20.432 170.902 20.76 171.43 21C171.958 21.224 172.534 21.336 173.158 21.336C173.59 21.336 173.918 21.272 174.142 21.144C174.382 21.016 174.502 20.84 174.502 20.616C174.502 20.328 174.358 20.112 174.07 19.968C173.798 19.808 173.446 19.672 173.014 19.56C172.582 19.432 172.126 19.296 171.646 19.152C171.166 19.008 170.71 18.808 170.278 18.552C169.846 18.296 169.494 17.944 169.222 17.496C168.95 17.032 168.814 16.448 168.814 15.744C168.814 14.992 169.006 14.344 169.39 13.8C169.774 13.24 170.318 12.8 171.022 12.48C171.726 12.16 172.55 12 173.494 12C174.486 12 175.398 12.176 176.23 12.528C177.078 12.864 177.766 13.368 178.294 14.04L176.206 16.152C175.838 15.72 175.422 15.416 174.958 15.24C174.51 15.064 174.07 14.976 173.638 14.976C173.222 14.976 172.91 15.04 172.702 15.168C172.494 15.28 172.39 15.448 172.39 15.672C172.39 15.912 172.526 16.104 172.798 16.248C173.07 16.392 173.422 16.52 173.854 16.632C174.286 16.744 174.742 16.88 175.222 17.04C175.702 17.2 176.158 17.416 176.59 17.688C177.022 17.96 177.374 18.328 177.646 18.792C177.918 19.24 178.054 19.832 178.054 20.568C178.054 21.704 177.622 22.608 176.758 23.28C175.91 23.952 174.758 24.288 173.302 24.288Z" fill="#1A1A1A"/>
<path d="M8.1 50.24C7.03333 50.24 6.04667 50.0533 5.14 49.68C4.24667 49.3067 3.46 48.7867 2.78 48.12C2.1 47.4533 1.57333 46.68 1.2 45.8C0.826667 44.9067 0.64 43.9467 0.64 42.92C0.64 41.88 0.826667 40.92 1.2 40.04C1.57333 39.16 2.09333 38.3933 2.76 37.74C3.42667 37.0733 4.20667 36.56 5.1 36.2C6.00667 35.8267 6.99333 35.64 8.06 35.64C9.11333 35.64 10.0867 35.8267 10.98 36.2C11.8867 36.56 12.6733 37.0733 13.34 37.74C14.02 38.3933 14.5467 39.1667 14.92 40.06C15.2933 40.94 15.48 41.9 15.48 42.94C15.48 43.9667 15.2933 44.9267 14.92 45.82C14.5467 46.7 14.0267 47.4733 13.36 48.14C12.6933 48.7933 11.9067 49.3067 11 49.68C10.1067 50.0533 9.14 50.24 8.1 50.24ZM8.06 47.38C8.9 47.38 9.63333 47.1933 10.26 46.82C10.9 46.4467 11.3933 45.9267 11.74 45.26C12.0867 44.58 12.26 43.8 12.26 42.92C12.26 42.2533 12.16 41.6533 11.96 41.12C11.76 40.5733 11.4733 40.1067 11.1 39.72C10.7267 39.32 10.28 39.02 9.76 38.82C9.25333 38.6067 8.68667 38.5 8.06 38.5C7.22 38.5 6.48 38.6867 5.84 39.06C5.21333 39.42 4.72667 39.9333 4.38 40.6C4.03333 41.2533 3.86 42.0267 3.86 42.92C3.86 43.5867 3.96 44.1933 4.16 44.74C4.36 45.2867 4.64 45.76 5 46.16C5.37333 46.5467 5.82 46.8467 6.34 47.06C6.86 47.2733 7.43333 47.38 8.06 47.38ZM17.1933 50V40.28H20.2533V50H17.1933ZM20.2533 44.66L18.9733 43.66C19.2266 42.5267 19.6533 41.6467 20.2533 41.02C20.8533 40.3933 21.6866 40.08 22.7533 40.08C23.2199 40.08 23.6266 40.1533 23.9733 40.3C24.3333 40.4333 24.6466 40.6467 24.9133 40.94L23.0933 43.24C22.9599 43.0933 22.7933 42.98 22.5933 42.9C22.3933 42.82 22.1666 42.78 21.9133 42.78C21.4066 42.78 20.9999 42.94 20.6933 43.26C20.3999 43.5667 20.2533 44.0333 20.2533 44.66ZM29.595 50.2C28.675 50.2 27.855 49.98 27.135 49.54C26.4283 49.1 25.8683 48.5 25.455 47.74C25.055 46.98 24.855 46.1133 24.855 45.14C24.855 44.1667 25.055 43.3 25.455 42.54C25.8683 41.78 26.4283 41.18 27.135 40.74C27.855 40.3 28.675 40.08 29.595 40.08C30.2617 40.08 30.8617 40.2067 31.395 40.46C31.9417 40.7133 32.3883 41.0667 32.735 41.52C33.095 41.96 33.295 42.4667 33.335 43.04V47.14C33.295 47.7133 33.1017 48.2333 32.755 48.7C32.4083 49.1533 31.9617 49.52 31.415 49.8C30.8683 50.0667 30.2617 50.2 29.595 50.2ZM30.135 47.44C30.575 47.44 30.955 47.3467 31.275 47.16C31.595 46.96 31.8483 46.6867 32.035 46.34C32.2217 45.9933 32.315 45.5933 32.315 45.14C32.315 44.6867 32.2217 44.2933 32.035 43.96C31.8617 43.6133 31.6083 43.34 31.275 43.14C30.955 42.94 30.5817 42.84 30.155 42.84C29.7283 42.84 29.3483 42.94 29.015 43.14C28.695 43.34 28.435 43.6133 28.235 43.96C28.0483 44.3067 27.955 44.7 27.955 45.14C27.955 45.58 28.0483 45.9733 28.235 46.32C28.4217 46.6667 28.6817 46.94 29.015 47.14C29.3483 47.34 29.7217 47.44 30.135 47.44ZM35.195 50H32.195V47.38L32.655 45.02L32.135 42.66V35.48H35.195V50ZM42.1495 50.22C41.0962 50.22 40.1562 50.0067 39.3295 49.58C38.5162 49.14 37.8762 48.5333 37.4095 47.76C36.9429 46.9867 36.7095 46.1133 36.7095 45.14C36.7095 44.1667 36.9362 43.3 37.3895 42.54C37.8562 41.7667 38.4829 41.16 39.2695 40.72C40.0562 40.28 40.9429 40.06 41.9295 40.06C42.8895 40.06 43.7362 40.2667 44.4695 40.68C45.2029 41.0933 45.7762 41.6667 46.1895 42.4C46.6162 43.1333 46.8295 43.9733 46.8295 44.92C46.8295 45.0933 46.8162 45.28 46.7895 45.48C46.7762 45.6667 46.7429 45.8867 46.6895 46.14L38.3095 46.16V44.06L45.3895 44.04L44.0695 44.92C44.0562 44.36 43.9695 43.9 43.8095 43.54C43.6495 43.1667 43.4095 42.8867 43.0895 42.7C42.7829 42.5 42.4029 42.4 41.9495 42.4C41.4695 42.4 41.0495 42.5133 40.6895 42.74C40.3429 42.9533 40.0695 43.26 39.8695 43.66C39.6829 44.06 39.5895 44.5467 39.5895 45.12C39.5895 45.6933 39.6895 46.1867 39.8895 46.6C40.1029 47 40.3962 47.3133 40.7695 47.54C41.1562 47.7533 41.6095 47.86 42.1295 47.86C42.6095 47.86 43.0429 47.78 43.4295 47.62C43.8162 47.4467 44.1562 47.1933 44.4495 46.86L46.1295 48.54C45.6495 49.1 45.0695 49.52 44.3895 49.8C43.7095 50.08 42.9629 50.22 42.1495 50.22ZM48.3066 50V40.28H51.3666V50H48.3066ZM51.3666 44.66L50.0866 43.66C50.3399 42.5267 50.7666 41.6467 51.3666 41.02C51.9666 40.3933 52.7999 40.08 53.8666 40.08C54.3332 40.08 54.7399 40.1533 55.0866 40.3C55.4466 40.4333 55.7599 40.6467 56.0266 40.94L54.2066 43.24C54.0732 43.0933 53.9066 42.98 53.7066 42.9C53.5066 42.82 53.2799 42.78 53.0266 42.78C52.5199 42.78 52.1132 42.94 51.8066 43.26C51.5132 43.5667 51.3666 44.0333 51.3666 44.66ZM64.4294 50V36.08H67.5694V50H64.4294ZM60.0094 38.62V35.88H71.9894V38.62H60.0094ZM75.9386 50.22C74.8853 50.22 73.9453 50.0067 73.1186 49.58C72.3053 49.14 71.6653 48.5333 71.1986 47.76C70.7319 46.9867 70.4986 46.1133 70.4986 45.14C70.4986 44.1667 70.7253 43.3 71.1786 42.54C71.6453 41.7667 72.2719 41.16 73.0586 40.72C73.8453 40.28 74.7319 40.06 75.7186 40.06C76.6786 40.06 77.5253 40.2667 78.2586 40.68C78.9919 41.0933 79.5653 41.6667 79.9786 42.4C80.4053 43.1333 80.6186 43.9733 80.6186 44.92C80.6186 45.0933 80.6053 45.28 80.5786 45.48C80.5653 45.6667 80.5319 45.8867 80.4786 46.14L72.0986 46.16V44.06L79.1786 44.04L77.8586 44.92C77.8453 44.36 77.7586 43.9 77.5986 43.54C77.4386 43.1667 77.1986 42.8867 76.8786 42.7C76.5719 42.5 76.1919 42.4 75.7386 42.4C75.2586 42.4 74.8386 42.5133 74.4786 42.74C74.1319 42.9533 73.8586 43.26 73.6586 43.66C73.4719 44.06 73.3786 44.5467 73.3786 45.12C73.3786 45.6933 73.4786 46.1867 73.6786 46.6C73.8919 47 74.1853 47.3133 74.5586 47.54C74.9453 47.7533 75.3986 47.86 75.9186 47.86C76.3986 47.86 76.8319 47.78 77.2186 47.62C77.6053 47.4467 77.9453 47.1933 78.2386 46.86L79.9186 48.54C79.4386 49.1 78.8586 49.52 78.1786 49.8C77.4986 50.08 76.7519 50.22 75.9386 50.22ZM82.0956 50V40.28H85.1556V50H82.0956ZM85.1556 44.66L83.8756 43.66C84.129 42.5267 84.5556 41.6467 85.1556 41.02C85.7556 40.3933 86.589 40.08 87.6556 40.08C88.1223 40.08 88.529 40.1533 88.8756 40.3C89.2356 40.4333 89.549 40.6467 89.8156 40.94L87.9956 43.24C87.8623 43.0933 87.6956 42.98 87.4956 42.9C87.2956 42.82 87.069 42.78 86.8156 42.78C86.309 42.78 85.9023 42.94 85.5956 43.26C85.3023 43.5667 85.1556 44.0333 85.1556 44.66ZM90.5722 50V40.28H93.6322V50H90.5722ZM96.7922 50V44.32C96.7922 43.8267 96.6389 43.4467 96.3322 43.18C96.0389 42.9 95.6722 42.76 95.2322 42.76C94.9255 42.76 94.6522 42.8267 94.4122 42.96C94.1722 43.08 93.9789 43.2533 93.8322 43.48C93.6989 43.7067 93.6322 43.9867 93.6322 44.32L92.4522 43.8C92.4522 43.0267 92.6189 42.3667 92.9522 41.82C93.2855 41.26 93.7389 40.8333 94.3122 40.54C94.8855 40.2333 95.5322 40.08 96.2522 40.08C96.9322 40.08 97.5389 40.2333 98.0722 40.54C98.6189 40.8467 99.0522 41.2733 99.3722 41.82C99.6922 42.3667 99.8522 43.02 99.8522 43.78V50H96.7922ZM103.012 50V44.32C103.012 43.8267 102.859 43.4467 102.552 43.18C102.259 42.9 101.892 42.76 101.452 42.76C101.146 42.76 100.872 42.8267 100.632 42.96C100.392 43.08 100.199 43.2533 100.052 43.48C99.9189 43.7067 99.8522 43.9867 99.8522 44.32L98.0922 44.08C98.1189 43.2533 98.3122 42.5467 98.6722 41.96C99.0455 41.36 99.5322 40.9 100.132 40.58C100.746 40.2467 101.432 40.08 102.192 40.08C102.939 40.08 103.599 40.24 104.172 40.56C104.759 40.8667 105.219 41.3133 105.552 41.9C105.899 42.4733 106.072 43.1667 106.072 43.98V50H103.012ZM108.033 50V40.28H111.093V50H108.033ZM109.573 38.94C109.093 38.94 108.693 38.78 108.373 38.46C108.066 38.1267 107.913 37.7267 107.913 37.26C107.913 36.78 108.066 36.38 108.373 36.06C108.693 35.74 109.093 35.58 109.573 35.58C110.053 35.58 110.446 35.74 110.753 36.06C111.06 36.38 111.213 36.78 111.213 37.26C111.213 37.7267 111.06 38.1267 110.753 38.46C110.446 38.78 110.053 38.94 109.573 38.94ZM119.668 50V44.46C119.668 43.9533 119.508 43.5467 119.188 43.24C118.881 42.92 118.488 42.76 118.008 42.76C117.675 42.76 117.381 42.8333 117.128 42.98C116.875 43.1133 116.675 43.3133 116.528 43.58C116.381 43.8333 116.308 44.1267 116.308 44.46L115.128 43.88C115.128 43.12 115.295 42.4533 115.628 41.88C115.961 41.3067 116.421 40.8667 117.008 40.56C117.608 40.24 118.281 40.08 119.028 40.08C119.748 40.08 120.381 40.2533 120.928 40.6C121.488 40.9333 121.928 41.38 122.248 41.94C122.568 42.5 122.728 43.1133 122.728 43.78V50H119.668ZM113.248 50V40.28H116.308V50H113.248ZM128.753 50.2C127.86 50.2 127.06 49.98 126.353 49.54C125.66 49.1 125.107 48.5 124.693 47.74C124.293 46.98 124.093 46.1133 124.093 45.14C124.093 44.1667 124.293 43.3 124.693 42.54C125.107 41.78 125.66 41.18 126.353 40.74C127.06 40.3 127.86 40.08 128.753 40.08C129.407 40.08 129.993 40.2067 130.513 40.46C131.047 40.7133 131.48 41.0667 131.813 41.52C132.147 41.96 132.333 42.4667 132.373 43.04V47.24C132.333 47.8133 132.147 48.3267 131.813 48.78C131.493 49.22 131.067 49.5667 130.533 49.82C130 50.0733 129.407 50.2 128.753 50.2ZM129.373 47.44C130.027 47.44 130.553 47.2267 130.953 46.8C131.353 46.36 131.553 45.8067 131.553 45.14C131.553 44.6867 131.46 44.2867 131.273 43.94C131.1 43.5933 130.847 43.3267 130.513 43.14C130.193 42.94 129.82 42.84 129.393 42.84C128.967 42.84 128.587 42.94 128.253 43.14C127.933 43.3267 127.673 43.5933 127.473 43.94C127.287 44.2867 127.193 44.6867 127.193 45.14C127.193 45.58 127.287 45.9733 127.473 46.32C127.66 46.6667 127.92 46.94 128.253 47.14C128.587 47.34 128.96 47.44 129.373 47.44ZM131.433 50V47.38L131.893 45.02L131.433 42.66V40.28H134.433V50H131.433ZM136.588 50V35.48H139.648V50H136.588Z" fill="#CF240A"/>
</svg>
