<svg width="179" height="30" viewBox="0 0 179 30" fill="none" xmlns="http://www.w3.org/2000/svg">
<path d="M21.5538 3.7575C24.1363 3.7575 26.2313 14.65 26.2313 28.105H30C30 13.62 26.1975 1.895 21.5425 1.895C18.8837 1.895 16.5338 5.4075 14.9825 10.9288C13.4313 5.40875 11.0813 1.895 8.44375 1.895C3.78875 1.895 0 13.61 0 28.095H3.7675C3.7675 14.6413 5.84 3.7575 8.4225 3.7575C11.005 3.7575 13.0988 13.82 13.0988 26.2325H16.845C16.845 13.82 18.95 3.7575 21.5325 3.7575H21.5538Z" fill="#FEC208"/>
<path d="M46.882 24V7.056H49.57L56.242 17.448H54.874L61.522 7.056H64.234V24H60.466V13.416L61.138 13.584L56.794 20.352H54.298L49.978 13.584L50.626 13.416V24H46.882ZM72.7876 24.264C71.5876 24.264 70.4996 24 69.5236 23.472C68.5476 22.944 67.7796 22.216 67.2196 21.288C66.6596 20.36 66.3796 19.32 66.3796 18.168C66.3796 17 66.6596 15.96 67.2196 15.048C67.7956 14.12 68.5716 13.392 69.5476 12.864C70.5236 12.336 71.6196 12.072 72.8356 12.072C73.7476 12.072 74.5796 12.232 75.3316 12.552C76.0996 12.856 76.7796 13.32 77.3716 13.944L75.0196 16.296C74.7476 15.992 74.4276 15.768 74.0596 15.624C73.7076 15.48 73.2996 15.408 72.8356 15.408C72.3076 15.408 71.8356 15.528 71.4196 15.768C71.0196 15.992 70.6996 16.312 70.4596 16.728C70.2356 17.128 70.1236 17.6 70.1236 18.144C70.1236 18.688 70.2356 19.168 70.4596 19.584C70.6996 20 71.0276 20.328 71.4436 20.568C71.8596 20.808 72.3236 20.928 72.8356 20.928C73.3156 20.928 73.7396 20.848 74.1076 20.688C74.4916 20.512 74.8196 20.272 75.0916 19.968L77.4196 22.32C76.8116 22.96 76.1236 23.448 75.3556 23.784C74.5876 24.104 73.7316 24.264 72.7876 24.264ZM86.5041 24V20.688H90.7041C91.7281 20.688 92.6241 20.488 93.3921 20.088C94.1601 19.672 94.7521 19.072 95.1681 18.288C95.5841 17.504 95.7921 16.576 95.7921 15.504C95.7921 14.432 95.5761 13.512 95.1441 12.744C94.7281 11.976 94.1361 11.384 93.3681 10.968C92.6161 10.552 91.7281 10.344 90.7041 10.344H86.3841V7.056H90.7521C92.0321 7.056 93.2081 7.264 94.2801 7.68C95.3681 8.08 96.3121 8.664 97.1121 9.432C97.9281 10.184 98.5521 11.08 98.9841 12.12C99.4321 13.144 99.6561 14.28 99.6561 15.528C99.6561 16.76 99.4321 17.896 98.9841 18.936C98.5521 19.976 97.9361 20.872 97.1361 21.624C96.3361 22.376 95.3921 22.96 94.3041 23.376C93.2321 23.792 92.0641 24 90.8001 24H86.5041ZM83.9601 24V7.056H87.7281V24H83.9601ZM107.334 24.264C106.134 24.264 105.046 24 104.07 23.472C103.11 22.928 102.35 22.192 101.79 21.264C101.23 20.336 100.95 19.296 100.95 18.144C100.95 16.992 101.23 15.96 101.79 15.048C102.35 14.136 103.11 13.416 104.07 12.888C105.03 12.344 106.118 12.072 107.334 12.072C108.55 12.072 109.638 12.336 110.598 12.864C111.558 13.392 112.318 14.12 112.878 15.048C113.438 15.96 113.718 16.992 113.718 18.144C113.718 19.296 113.438 20.336 112.878 21.264C112.318 22.192 111.558 22.928 110.598 23.472C109.638 24 108.55 24.264 107.334 24.264ZM107.334 20.928C107.862 20.928 108.326 20.816 108.726 20.592C109.126 20.352 109.43 20.024 109.638 19.608C109.862 19.176 109.974 18.688 109.974 18.144C109.974 17.6 109.862 17.128 109.638 16.728C109.414 16.312 109.102 15.992 108.702 15.768C108.318 15.528 107.862 15.408 107.334 15.408C106.822 15.408 106.366 15.528 105.966 15.768C105.566 15.992 105.254 16.312 105.03 16.728C104.806 17.144 104.694 17.624 104.694 18.168C104.694 18.696 104.806 19.176 105.03 19.608C105.254 20.024 105.566 20.352 105.966 20.592C106.366 20.816 106.822 20.928 107.334 20.928ZM123.25 24V17.352C123.25 16.744 123.058 16.256 122.674 15.888C122.306 15.504 121.834 15.312 121.258 15.312C120.858 15.312 120.506 15.4 120.202 15.576C119.898 15.736 119.658 15.976 119.482 16.296C119.306 16.6 119.218 16.952 119.218 17.352L117.802 16.656C117.802 15.744 118.002 14.944 118.402 14.256C118.802 13.568 119.354 13.04 120.058 12.672C120.778 12.288 121.586 12.096 122.482 12.096C123.346 12.096 124.106 12.304 124.762 12.72C125.434 13.12 125.962 13.656 126.346 14.328C126.73 15 126.922 15.736 126.922 16.536V24H123.25ZM115.546 24V12.336H119.218V24H115.546ZM134.152 24.24C133.08 24.24 132.12 23.976 131.272 23.448C130.44 22.92 129.776 22.2 129.28 21.288C128.8 20.376 128.56 19.336 128.56 18.168C128.56 17 128.8 15.96 129.28 15.048C129.776 14.136 130.44 13.416 131.272 12.888C132.12 12.36 133.08 12.096 134.152 12.096C134.936 12.096 135.64 12.248 136.264 12.552C136.904 12.856 137.424 13.28 137.824 13.824C138.224 14.352 138.448 14.96 138.496 15.648V20.688C138.448 21.376 138.224 21.992 137.824 22.536C137.44 23.064 136.928 23.48 136.288 23.784C135.648 24.088 134.936 24.24 134.152 24.24ZM134.896 20.928C135.68 20.928 136.312 20.672 136.792 20.16C137.272 19.632 137.512 18.968 137.512 18.168C137.512 17.624 137.4 17.144 137.176 16.728C136.968 16.312 136.664 15.992 136.264 15.768C135.88 15.528 135.432 15.408 134.92 15.408C134.408 15.408 133.952 15.528 133.552 15.768C133.168 15.992 132.856 16.312 132.616 16.728C132.392 17.144 132.28 17.624 132.28 18.168C132.28 18.696 132.392 19.168 132.616 19.584C132.84 20 133.152 20.328 133.552 20.568C133.952 20.808 134.4 20.928 134.896 20.928ZM137.368 24V20.856L137.92 18.024L137.368 15.192V12.336H140.968V24H137.368ZM143.554 24V6.576H147.226V24H143.554ZM154.78 24.24C153.676 24.24 152.692 23.976 151.828 23.448C150.98 22.92 150.308 22.2 149.812 21.288C149.332 20.376 149.092 19.336 149.092 18.168C149.092 17 149.332 15.96 149.812 15.048C150.308 14.136 150.98 13.416 151.828 12.888C152.692 12.36 153.676 12.096 154.78 12.096C155.58 12.096 156.3 12.248 156.94 12.552C157.596 12.856 158.132 13.28 158.548 13.824C158.98 14.352 159.22 14.96 159.268 15.648V20.568C159.22 21.256 158.988 21.88 158.572 22.44C158.156 22.984 157.62 23.424 156.964 23.76C156.308 24.08 155.58 24.24 154.78 24.24ZM155.428 20.928C155.956 20.928 156.412 20.816 156.796 20.592C157.18 20.352 157.484 20.024 157.708 19.608C157.932 19.192 158.044 18.712 158.044 18.168C158.044 17.624 157.932 17.152 157.708 16.752C157.5 16.336 157.196 16.008 156.796 15.768C156.412 15.528 155.964 15.408 155.452 15.408C154.94 15.408 154.484 15.528 154.084 15.768C153.7 16.008 153.388 16.336 153.148 16.752C152.924 17.168 152.812 17.64 152.812 18.168C152.812 18.696 152.924 19.168 153.148 19.584C153.372 20 153.684 20.328 154.084 20.568C154.484 20.808 154.932 20.928 155.428 20.928ZM161.5 24H157.9V20.856L158.452 18.024L157.828 15.192V6.576H161.5V24ZM163.821 13.872L165.573 10.584L166.653 10.296C166.541 10.52 166.405 10.712 166.245 10.872C166.085 11.032 165.901 11.112 165.693 11.112C165.229 11.112 164.805 10.92 164.421 10.536C164.037 10.152 163.845 9.664 163.845 9.072C163.845 8.448 164.053 7.92 164.469 7.488C164.901 7.04 165.429 6.816 166.053 6.816C166.645 6.816 167.157 7.04 167.589 7.488C168.037 7.92 168.261 8.448 168.261 9.072C168.261 9.328 168.213 9.632 168.117 9.984C168.021 10.32 167.829 10.752 167.541 11.28L165.597 14.832L163.821 13.872ZM173.302 24.288C172.614 24.288 171.934 24.2 171.262 24.024C170.606 23.848 169.99 23.6 169.414 23.28C168.854 22.944 168.374 22.56 167.974 22.128L170.062 20.016C170.446 20.432 170.902 20.76 171.43 21C171.958 21.224 172.534 21.336 173.158 21.336C173.59 21.336 173.918 21.272 174.142 21.144C174.382 21.016 174.502 20.84 174.502 20.616C174.502 20.328 174.358 20.112 174.07 19.968C173.798 19.808 173.446 19.672 173.014 19.56C172.582 19.432 172.126 19.296 171.646 19.152C171.166 19.008 170.71 18.808 170.278 18.552C169.846 18.296 169.494 17.944 169.222 17.496C168.95 17.032 168.814 16.448 168.814 15.744C168.814 14.992 169.006 14.344 169.39 13.8C169.774 13.24 170.318 12.8 171.022 12.48C171.726 12.16 172.55 12 173.494 12C174.486 12 175.398 12.176 176.23 12.528C177.078 12.864 177.766 13.368 178.294 14.04L176.206 16.152C175.838 15.72 175.422 15.416 174.958 15.24C174.51 15.064 174.07 14.976 173.638 14.976C173.222 14.976 172.91 15.04 172.702 15.168C172.494 15.28 172.39 15.448 172.39 15.672C172.39 15.912 172.526 16.104 172.798 16.248C173.07 16.392 173.422 16.52 173.854 16.632C174.286 16.744 174.742 16.88 175.222 17.04C175.702 17.2 176.158 17.416 176.59 17.688C177.022 17.96 177.374 18.328 177.646 18.792C177.918 19.24 178.054 19.832 178.054 20.568C178.054 21.704 177.622 22.608 176.758 23.28C175.91 23.952 174.758 24.288 173.302 24.288Z" fill="#1A1A1A"/>
</svg>
